# xmcd
#
# Track frame offsets:
#	150
#	12897
#	26512
#	37061
#	57182
#	72241
#	87217
#	102191
#	115709
#	127299
#	137526
#	152747
#
# Disc length: 2174 seconds
#
# Revision: 2
# Processed by: cddbd v1.5.1PL0 Copyright (c) Steve Scherf et al.
# Submitted via: audiograbber 1.83.01
#
DISCID=9b087c0c
DTITLE=Kim Blakey - Friends
DYEAR=1991
DGENRE=Country
TTITLE0=Slip Up On Me Girl
TTITLE1=Friends
TTITLE2=Llano Estacado
TTITLE3=Nation Under God
TTITLE4=Beautiful Darling
TTITLE5=Fred The Talk-a-holic
TTITLE6=I'm Allright Now
TTITLE7=Sharing Sharon's Love
TTITLE8=Slip Away
TTITLE9=West Of The Pecos
TTITLE10=When A Cowboy Dreams At Night
TTITLE11=Crossroads Of Life
EXTD=
EXTT0=
EXTT1=
EXTT2=
EXTT3=
EXTT4=
EXTT5=
EXTT6=
EXTT7=
EXTT8=
EXTT9=
EXTT10=
EXTT11=
PLAYORDER=
